<svg width="70" height="70" viewBox="0 0 70 70" fill="none" xmlns="http://www.w3.org/2000/svg">
<rect width="70" height="70" rx="5" fill="#434343"/>
<path d="M43.3333 45.3334C47.9357 45.3334 51.6667 41.6025 51.6667 37.0001C51.6667 32.3977 47.9357 28.6667 43.3333 28.6667C38.731 28.6667 35 32.3977 35 37.0001C35 41.6025 38.731 45.3334 43.3333 45.3334Z" fill="#19BCFE"/>
<path fill-rule="evenodd" clip-rule="evenodd" d="M26.6666 61.9999C28.8767 61.9999 30.9963 61.1219 32.5591 59.5591C34.1219 57.9963 34.9999 55.8767 34.9999 53.6666V45.3333H26.6666C24.4564 45.3333 22.3368 46.2112 20.774 47.774C19.2112 49.3368 18.3333 51.4564 18.3333 53.6666C18.3333 55.8767 19.2112 57.9963 20.774 59.5591C22.3368 61.1219 24.4564 61.9999 26.6666 61.9999Z" fill="#09CF83"/>
<path fill-rule="evenodd" clip-rule="evenodd" d="M26.6666 45.3334H34.9999V28.6667H26.6666C24.4564 28.6667 22.3368 29.5447 20.774 31.1075C19.2112 32.6703 18.3333 34.7899 18.3333 37.0001C18.3333 39.2102 19.2112 41.3298 20.774 42.8926C22.3368 44.4554 24.4564 45.3334 26.6666 45.3334Z" fill="#A259FF"/>
<path fill-rule="evenodd" clip-rule="evenodd" d="M26.6666 28.6667H34.9999V12H26.6666C24.4564 12 22.3368 12.878 20.774 14.4408C19.2112 16.0036 18.3333 18.1232 18.3333 20.3333C18.3333 22.5435 19.2112 24.6631 20.774 26.2259C22.3368 27.7887 24.4564 28.6667 26.6666 28.6667Z" fill="#F24E1E"/>
<path fill-rule="evenodd" clip-rule="evenodd" d="M43.3333 28.6667H35V12H43.3333C45.5435 12 47.6631 12.878 49.2259 14.4408C50.7887 16.0036 51.6667 18.1232 51.6667 20.3333C51.6667 22.5435 50.7887 24.6631 49.2259 26.2259C47.6631 27.7887 45.5435 28.6667 43.3333 28.6667Z" fill="#FF7262"/>
</svg>
