<svg width="40" height="40" viewBox="0 0 40 40" fill="none" xmlns="http://www.w3.org/2000/svg">
<path d="M0 13.4167C0 8.67091 0 6.29803 0.938221 4.49188C1.72885 2.96985 2.96985 1.72885 4.49188 0.938221C6.29803 0 8.67091 0 13.4167 0H26.5833C31.3291 0 33.702 0 35.5081 0.938221C37.0301 1.72885 38.2711 2.96985 39.0618 4.49188C40 6.29803 40 8.67091 40 13.4167V26.5833C40 31.3291 40 33.702 39.0618 35.5081C38.2711 37.0301 37.0301 38.2711 35.5081 39.0618C33.702 40 31.3291 40 26.5833 40H13.4167C8.67091 40 6.29803 40 4.49188 39.0618C2.96985 38.2711 1.72885 37.0301 0.938221 35.5081C0 33.702 0 31.3291 0 26.5833V13.4167Z" fill="#1265BF"/>
<path d="M8.97805 12.4224C10.8945 12.4224 12.448 10.8688 12.448 8.95241C12.448 7.03599 10.8945 5.48242 8.97805 5.48242C7.06162 5.48242 5.50806 7.03599 5.50806 8.95241C5.50806 10.8688 7.06162 12.4224 8.97805 12.4224Z" fill="white"/>
<path d="M15.626 14.9868H21.3769V17.6214C21.3769 17.6214 22.9374 14.5002 27.1836 14.5002C30.9713 14.5002 34.109 16.3661 34.109 22.0536V34.0469H28.1495V23.5069C28.1495 20.1518 26.3582 19.7828 24.9933 19.7828C22.1607 19.7828 21.6757 22.2261 21.6757 23.9445V34.0469H15.626V14.9868Z" fill="white"/>
<path d="M5.95317 14.9868H12.0029V34.0469H5.95317V14.9868Z" fill="white"/>
</svg>
