<svg width="40" height="40" viewBox="0 0 40 40" fill="none" xmlns="http://www.w3.org/2000/svg">
<path d="M0 13.4167C0 8.67091 0 6.29803 0.938221 4.49188C1.72885 2.96985 2.96985 1.72885 4.49188 0.938221C6.29803 0 8.67091 0 13.4167 0H26.5833C31.3291 0 33.702 0 35.5081 0.938221C37.0301 1.72885 38.2711 2.96985 39.0618 4.49188C40 6.29803 40 8.67091 40 13.4167V26.5833C40 31.3291 40 33.702 39.0618 35.5081C38.2711 37.0301 37.0301 38.2711 35.5081 39.0618C33.702 40 31.3291 40 26.5833 40H13.4167C8.67091 40 6.29803 40 4.49188 39.0618C2.96985 38.2711 1.72885 37.0301 0.938221 35.5081C0 33.702 0 31.3291 0 26.5833V13.4167Z" fill="white"/>
<path d="M13.4167 0.25H26.5833C28.9604 0.25 30.7279 0.250201 32.1274 0.36642C33.5239 0.482391 34.5314 0.71259 35.3929 1.16007C36.8692 1.92699 38.073 3.13076 38.8399 4.60712C39.2874 5.46857 39.5176 6.47614 39.6336 7.87261C39.7498 9.27207 39.75 11.0396 39.75 13.4167V26.5833C39.75 28.9604 39.7498 30.7279 39.6336 32.1274C39.5176 33.5239 39.2874 34.5314 38.8399 35.3929C38.073 36.8692 36.8692 38.073 35.3929 38.8399C34.5314 39.2874 33.5239 39.5176 32.1274 39.6336C30.7279 39.7498 28.9604 39.75 26.5833 39.75H13.4167C11.0396 39.75 9.27207 39.7498 7.87261 39.6336C6.47614 39.5176 5.46857 39.2874 4.60712 38.8399C3.13076 38.073 1.92699 36.8692 1.16007 35.3929C0.71259 34.5314 0.482391 33.5239 0.36642 32.1274C0.250201 30.7279 0.25 28.9604 0.25 26.5833V13.4167C0.25 11.0396 0.250201 9.27207 0.36642 7.87261C0.482391 6.47614 0.71259 5.46857 1.16007 4.60712C1.92699 3.13076 3.13076 1.92699 4.60712 1.16007C5.46857 0.71259 6.47614 0.482391 7.87261 0.36642C9.27207 0.250201 11.0396 0.25 13.4167 0.25Z" stroke="black" stroke-opacity="0.15" stroke-width="0.5"/>
<path fill-rule="evenodd" clip-rule="evenodd" d="M33.6 20.322C33.6 19.3175 33.5099 18.3516 33.3424 17.4243H20V22.9042H27.6243C27.2958 24.6751 26.2977 26.1755 24.7974 27.18V30.7346H29.3758C32.0546 28.2683 33.6 24.6364 33.6 20.322Z" fill="#4285F4"/>
<path fill-rule="evenodd" clip-rule="evenodd" d="M20 34.1669C23.825 34.1669 27.0318 32.8984 29.3757 30.7347L24.7973 27.1802C23.5287 28.0302 21.906 28.5324 20 28.5324C16.3102 28.5324 13.1871 26.0404 12.073 22.6919H7.34009V26.3624C9.67115 30.9923 14.4621 34.1669 20 34.1669Z" fill="#34A853"/>
<path fill-rule="evenodd" clip-rule="evenodd" d="M12.073 22.692C11.7897 21.842 11.6287 20.934 11.6287 20.0003C11.6287 19.0666 11.7897 18.1586 12.073 17.3086V13.6382H7.34007C6.3806 15.5507 5.83325 17.7143 5.83325 20.0003C5.83325 22.2863 6.3806 24.4499 7.34007 26.3624L12.073 22.692Z" fill="#FBBC05"/>
<path fill-rule="evenodd" clip-rule="evenodd" d="M20 11.468C22.0799 11.468 23.9473 12.1827 25.4155 13.5865L29.4788 9.52327C27.0253 7.23729 23.8185 5.8335 20 5.8335C14.4621 5.8335 9.67115 9.00812 7.34009 13.6381L12.073 17.3085C13.1871 13.96 16.3102 11.468 20 11.468Z" fill="#EA4335"/>
</svg>
