<svg width="40" height="40" viewBox="0 0 40 40" fill="none" xmlns="http://www.w3.org/2000/svg">
<path d="M0 13.4167C0 8.67091 0 6.29803 0.938221 4.49188C1.72885 2.96985 2.96985 1.72885 4.49188 0.938221C6.29803 0 8.67091 0 13.4167 0H26.5833C31.3291 0 33.702 0 35.5081 0.938221C37.0301 1.72885 38.2711 2.96985 39.0618 4.49188C40 6.29803 40 8.67091 40 13.4167V26.5833C40 31.3291 40 33.702 39.0618 35.5081C38.2711 37.0301 37.0301 38.2711 35.5081 39.0618C33.702 40 31.3291 40 26.5833 40H13.4167C8.67091 40 6.29803 40 4.49188 39.0618C2.96985 38.2711 1.72885 37.0301 0.938221 35.5081C0 33.702 0 31.3291 0 26.5833V13.4167Z" fill="#EA4C89"/>
<path fill-rule="evenodd" clip-rule="evenodd" d="M19.9997 5.8335C12.1788 5.8335 5.83301 12.1793 5.83301 20.0002C5.83301 27.821 12.1788 34.1668 19.9997 34.1668C27.8052 34.1668 34.1663 27.821 34.1663 20.0002C34.1663 12.1793 27.8052 5.8335 19.9997 5.8335ZM29.357 12.3637C31.0472 14.4226 32.0613 17.0501 32.0921 19.8926C31.6926 19.8158 27.6976 19.0014 23.672 19.5085C23.5798 19.3087 23.5029 19.0936 23.4108 18.8785C23.1649 18.2946 22.8883 17.6954 22.6118 17.1269C27.0677 15.3138 29.0958 12.7017 29.357 12.3637ZM19.9997 7.92316C23.0727 7.92316 25.8845 9.07554 28.0203 10.9655C27.8052 11.2728 25.9767 13.7158 21.6745 15.3292C19.6924 11.6876 17.4952 8.70678 17.1571 8.24582C18.0637 8.03071 19.0163 7.92316 19.9997 7.92316ZM14.8524 9.06018C15.175 9.49039 17.3261 12.4866 19.339 16.0513C13.6846 17.5571 8.69093 17.5264 8.15315 17.5264C8.93675 13.7773 11.472 10.6582 14.8524 9.06018ZM7.89194 20.0155C7.89194 19.8926 7.89194 19.7697 7.89194 19.6468C8.41435 19.6621 14.2839 19.739 20.3223 17.9259C20.6757 18.6019 20.9984 19.2934 21.3057 19.9848C21.152 20.0309 20.983 20.077 20.8294 20.1231C14.5912 22.1359 11.2723 27.6367 10.9957 28.0976C9.07505 25.9618 7.89194 23.1193 7.89194 20.0155ZM19.9997 32.1079C17.2032 32.1079 14.6219 31.1553 12.5783 29.5573C12.7934 29.1117 15.2519 24.3792 22.074 21.9976C22.1047 21.9823 22.1201 21.9823 22.1508 21.9669C23.8563 26.3767 24.5478 30.0797 24.7321 31.1399C23.2725 31.7699 21.6745 32.1079 19.9997 32.1079ZM26.745 30.0336C26.6221 29.2961 25.9767 25.7621 24.3941 21.4138C28.1893 20.8145 31.5082 21.7979 31.923 21.9362C31.4006 25.3011 29.4646 28.2052 26.745 30.0336Z" fill="white"/>
</svg>
