<svg width="40" height="40" viewBox="0 0 40 40" fill="none" xmlns="http://www.w3.org/2000/svg">
<path d="M0 13.4167C0 8.67091 0 6.29803 0.938221 4.49188C1.72885 2.96985 2.96985 1.72885 4.49188 0.938221C6.29803 0 8.67091 0 13.4167 0H26.5833C31.3291 0 33.702 0 35.5081 0.938221C37.0301 1.72885 38.2711 2.96985 39.0618 4.49188C40 6.29803 40 8.67091 40 13.4167V26.5833C40 31.3291 40 33.702 39.0618 35.5081C38.2711 37.0301 37.0301 38.2711 35.5081 39.0618C33.702 40 31.3291 40 26.5833 40H13.4167C8.67091 40 6.29803 40 4.49188 39.0618C2.96985 38.2711 1.72885 37.0301 0.938221 35.5081C0 33.702 0 31.3291 0 26.5833V13.4167Z" fill="url(#paint0_linear)"/>
<path d="M27.7779 25.5556L28.6667 20.0001H23.3334V16.1112C23.3334 14.5556 23.889 13.3334 26.3334 13.3334H28.889V8.22228C27.4445 8.00005 25.889 7.77783 24.4445 7.77783C19.889 7.77783 16.6667 10.5556 16.6667 15.5556V20.0001H11.6667V25.5556H16.6667V40.0001C18.889 40.0001 21.1112 40.0001 23.3334 40.0001V25.5556H27.7779Z" fill="white"/>
<defs>
<linearGradient id="paint0_linear" x1="20" y1="38.8313" x2="20" y2="0" gradientUnits="userSpaceOnUse">
<stop stop-color="#0062E0"/>
<stop offset="1" stop-color="#19AFFF"/>
</linearGradient>
</defs>
</svg>
