<svg width="40" height="41" viewBox="0 0 40 41" fill="none" xmlns="http://www.w3.org/2000/svg">
<path fill-rule="evenodd" clip-rule="evenodd" d="M0.938221 4.49188C0 6.29803 0 8.67091 0 13.4167V26.5833C0 31.3291 0 33.702 0.938221 35.5081C1.72885 37.0301 2.96985 38.2711 4.49188 39.0618C6.29803 40 8.67091 40 13.4167 40H14.9939C14.9968 39.6805 15.0259 36.3311 15.0158 34.6124C9.45273 35.8206 8.27897 31.9309 8.27897 31.9309C7.36918 29.6215 6.05791 29.0064 6.05791 29.0064C4.24201 27.7651 6.19542 27.7896 6.19542 27.7896C8.20285 27.932 9.25874 29.8511 9.25874 29.8511C11.0427 32.907 13.9403 32.0243 15.0797 31.5135C15.2614 30.2206 15.7771 29.3391 16.3492 28.8394C11.9083 28.3348 7.23904 26.6183 7.23904 18.9545C7.23904 16.7715 8.01868 14.9863 9.29803 13.5878C9.09176 13.082 8.40543 11.0488 9.49325 8.29486C9.49325 8.29486 11.1729 7.75709 14.9937 10.3453C16.5886 9.90203 18.3001 9.6798 20.0006 9.67244C21.6987 9.6798 23.4102 9.90203 25.0075 10.3453C28.8259 7.75709 30.5019 8.29486 30.5019 8.29486C31.5934 11.0488 30.907 13.082 30.7008 13.5878C31.9826 14.9863 32.7573 16.7715 32.7573 18.9545C32.7573 26.638 28.0807 28.3286 23.625 28.8234C24.3433 29.441 24.983 30.6614 24.983 32.5276C24.983 34.9247 25.0056 39.6195 25.0074 40H26.5833C31.3291 40 33.702 40 35.5081 39.0618C37.0301 38.2711 38.2711 37.0301 39.0618 35.5081C40 33.702 40 31.3291 40 26.5833V13.4167C40 8.67091 40 6.29803 39.0618 4.49188C38.2711 2.96985 37.0301 1.72885 35.5081 0.938221C33.702 0 31.3291 0 26.5833 0H13.4167C8.67091 0 6.29803 0 4.49188 0.938221C2.96985 1.72885 1.72885 2.96985 0.938221 4.49188Z" fill="black"/>
<path fill-rule="evenodd" clip-rule="evenodd" d="M14.9936 40.0247C14.9936 40.0247 15.0264 36.4184 15.0157 34.6124C9.45263 35.8206 8.27887 31.931 8.27887 31.931C7.36908 29.6215 6.0578 29.0064 6.0578 29.0064C4.24191 27.7651 6.19532 27.7896 6.19532 27.7896C8.20275 27.9321 9.25864 29.8511 9.25864 29.8511C11.0426 32.9071 13.9402 32.0243 15.0796 31.5135C15.2613 30.2207 15.7769 29.3391 16.3491 28.8394C11.9082 28.3348 7.23893 26.6183 7.23893 18.9545C7.23893 16.7715 8.01858 14.9863 9.29793 13.5879C9.09166 13.082 8.40533 11.0488 9.49315 8.29488C9.49315 8.29488 11.1728 7.75711 14.9936 10.3453C16.5885 9.90205 18.3 9.67982 20.0005 9.67246C21.6986 9.67982 23.4101 9.90205 25.0074 10.3453C28.8258 7.75711 30.5018 8.29488 30.5018 8.29488C31.5933 11.0488 30.9069 13.082 30.7007 13.5879C31.9825 14.9863 32.7572 16.7715 32.7572 18.9545C32.7572 26.638 28.0806 28.3286 23.6249 28.8234C24.3432 29.441 24.9829 30.6614 24.9829 32.5277C24.9829 35.0271 25.0074 40.0247 25.0074 40.0247H14.9936Z" fill="white"/>
</svg>
