<svg width="41" height="31" viewBox="0 0 41 31" fill="none" xmlns="http://www.w3.org/2000/svg">
<g clip-path="url(#clip0)">
<path d="M9.31821 30.8474V14.9603L4.40542 10.4528L0 7.95142V28.0438C0 29.595 1.25322 30.8474 2.79553 30.8474H9.31821Z" fill="#4285F4"/>
<path d="M31.6818 30.8475H38.2044C39.7514 30.8475 41 29.5905 41 28.0438V7.95166L36.0101 10.8167L31.6818 14.9604V30.8475Z" fill="#34A853"/>
<path d="M9.31815 14.9603L8.64966 8.75276L9.31815 2.81152L20.4999 11.2223L31.6817 2.81152L32.4297 8.432L31.6817 14.9603L20.4999 23.3711L9.31815 14.9603Z" fill="#EA4335"/>
<path d="M31.6818 2.81147V14.9603L41 7.95137V4.21322C41 0.746199 37.0537 -1.23025 34.291 0.848997L31.6818 2.81147Z" fill="#FBBC04"/>
<path d="M0 7.9512L4.28562 11.1749L9.31821 14.9601V2.8113L6.70895 0.848826C3.94145 -1.23058 0 0.746028 0 4.21289V7.95104V7.9512Z" fill="#C5221F"/>
</g>
<defs>
<clipPath id="clip0">
<rect width="41" height="31" fill="white"/>
</clipPath>
</defs>
</svg>
