<svg width="57" height="81" viewBox="0 0 57 81" fill="none" xmlns="http://www.w3.org/2000/svg">
<path d="M28.4653 80.7953L5.26853 74.3059L0.0991211 15.8782H56.901L51.7262 74.2969L28.4653 80.7953Z" fill="#264DE4"/>
<path d="M47.296 70.5771L51.7179 20.6555H28.5V75.8282L47.296 70.5771Z" fill="#2965F1"/>
<path d="M11.9497 42.3254L12.5869 49.4914H28.5V42.3254H11.9497Z" fill="#EBEBEB"/>
<path d="M10.6689 27.8215L11.3153 34.9874H28.4999V27.8215H10.6689Z" fill="#EBEBEB"/>
<path d="M28.5001 60.9362L28.4689 60.9445L20.5495 58.7896L20.0431 53.0745H12.9048L13.9009 64.3261L28.4673 68.4007L28.5001 68.3918V60.9362Z" fill="#EBEBEB"/>
<path d="M13.467 0H22.0794V3.62952H17.0687V7.25904H22.0798V10.8883H13.467V0Z" fill="black"/>
<path d="M23.8022 0H32.4148V3.15608H27.4039V3.78726H32.4148V11.0463H23.8024V7.73202H28.8133V7.10085H23.802V0H23.8022Z" fill="black"/>
<path d="M34.1375 0H42.75V3.15608H37.7391V3.78726H42.75V11.0463H34.1375V7.73202H39.1483V7.10085H34.1377V0H34.1375Z" fill="black"/>
<path d="M45.0049 42.3255L46.2885 27.8215H28.4756V34.9875H38.4955L37.8485 42.3255H28.4756V49.4914H37.232L36.4064 58.7851L28.4753 60.9422V68.3974L43.0533 64.3261L43.1602 63.1153L44.8315 44.2497L45.0049 42.3255Z" fill="white"/>
</svg>
