<svg width="72" height="54" viewBox="0 0 72 54" fill="none" xmlns="http://www.w3.org/2000/svg">
<path d="M61.9541 31.082C59.4493 31.095 57.2722 31.6983 55.4494 32.5901C54.7803 31.2654 54.1115 30.0853 53.9936 29.2196C53.8623 28.2099 53.7051 27.5934 53.8623 26.3868C54.0198 25.1803 54.728 23.4621 54.7148 23.3311C54.7018 23.2 54.5573 22.5835 53.1147 22.5706C51.6722 22.5573 50.4263 22.8459 50.282 23.2262C50.1377 23.6064 49.8623 24.4721 49.6787 25.3637C49.4295 26.6754 46.7936 31.3571 45.2856 33.8096C44.8001 32.8525 44.3805 32.013 44.2885 31.3442C44.1575 30.3345 44 29.718 44.1575 28.5114C44.315 27.3048 45.0232 25.587 45.0099 25.4556C44.9967 25.3246 44.8524 24.7081 43.4099 24.6951C41.9671 24.6819 40.7212 24.9705 40.5772 25.3507C40.4329 25.7313 40.2754 26.6228 39.9739 27.4885C39.6721 28.3542 36.1705 36.1707 35.2525 38.1901C34.8816 39.0074 34.4924 39.8164 34.0854 40.6164C34.0854 40.6164 34.0721 40.6558 34.0328 40.7213C33.9049 40.9722 33.7738 41.2214 33.6396 41.4689V41.4818C33.4427 41.8362 33.2329 42.1638 33.128 42.1638C33.0492 42.1638 32.9049 41.2197 33.1541 39.9344C33.6787 37.2197 34.9246 32.9968 34.9117 32.8525C34.9117 32.7738 35.1476 32.0394 34.0986 31.6589C33.0754 31.2786 32.7083 31.9081 32.6164 31.9081C32.5247 31.9081 32.4589 32.1311 32.4589 32.1311C32.4589 32.1311 33.6002 27.3836 30.282 27.3836C28.21 27.3836 25.3508 29.6524 23.9345 31.6983C22.3244 32.5745 20.7156 33.4532 19.1082 34.3344C18.3348 34.7673 17.5346 35.2001 16.7871 35.6065C16.7345 35.5542 16.6822 35.4884 16.6296 35.4361C12.6164 31.1476 5.19366 28.1179 5.50838 22.3608C5.6265 20.2623 6.34763 14.7541 19.7641 8.06566C30.8065 2.62291 39.5936 4.13097 41.1149 7.47531C43.2918 12.2493 36.4068 21.1148 24.9968 22.3998C20.6427 22.8853 18.3607 21.2065 17.7838 20.5771C17.1805 19.9212 17.0886 19.8818 16.8655 20.0132C16.4985 20.21 16.7345 20.8001 16.8655 21.141C17.2067 22.0325 18.6098 23.6064 20.9836 24.3804C23.082 25.0622 28.1836 25.4427 34.3607 23.0557C41.2721 20.3802 46.6755 12.9442 45.0887 6.71481C43.5016 0.393439 33.0098 -1.69175 23.082 1.83597C17.1805 3.93466 10.7804 7.23935 6.17719 11.5411C0.708285 16.6556 -0.157402 21.1016 0.196691 22.964C1.46907 29.5737 10.5838 33.8754 14.2297 37.0622C14.046 37.1672 13.8753 37.2591 13.7313 37.3379C11.9082 38.2427 4.95741 41.8753 3.22632 45.718C1.25925 50.072 3.54132 53.1936 5.04938 53.613C9.73135 54.9115 14.5444 52.5771 17.1279 48.7212C19.7115 44.8655 19.3968 39.8556 18.2034 37.5606C18.1902 37.5345 18.1773 37.508 18.1508 37.4819C18.6231 37.2065 19.1082 36.918 19.5804 36.6426C20.4483 36.1296 21.3273 35.6354 22.2166 35.1604C21.7705 36.3802 21.4426 37.836 21.2854 39.9344C21.0885 42.4001 22.0982 45.5999 23.4229 46.8587C24.0132 47.41 24.7082 47.4229 25.1543 47.4229C26.7017 47.4229 27.3969 46.1376 28.1707 44.6163C29.1148 42.7542 29.9673 40.5903 29.9673 40.5903C29.9673 40.5903 28.905 46.4394 31.7903 46.4394C32.8394 46.4394 33.9017 45.0753 34.3739 44.3804V44.3933C34.3739 44.3933 34.4001 44.3539 34.4527 44.2622C34.5576 44.0918 34.6231 43.9866 34.6231 43.9866V43.9607C35.0427 43.2261 35.9872 41.5606 37.3903 38.7933C39.2002 35.2263 40.9445 30.7673 40.9445 30.7673C40.9445 30.7673 41.102 31.8558 41.6394 33.6656C41.9544 34.7279 42.6098 35.8951 43.1346 37.0229C42.7149 37.6132 42.4525 37.9409 42.4525 37.9409L42.4658 37.9541C42.1246 38.3999 41.7576 38.885 41.3509 39.3575C39.9213 41.0622 38.2166 43.0166 37.9804 43.5802C37.7048 44.249 37.7706 44.7345 38.2954 45.1279C38.6756 45.4165 39.3574 45.4556 40.0526 45.4165C41.3379 45.3245 42.2427 45.0098 42.6885 44.8132C43.3838 44.564 44.1968 44.1835 44.9574 43.6196C46.3608 42.5835 47.213 41.1016 47.1345 39.1477C47.0951 38.0722 46.741 36.9967 46.3082 35.9868C46.4395 35.8034 46.5574 35.6197 46.6887 35.4361C48.905 32.1966 50.6231 28.6425 50.6231 28.6425C50.6231 28.6425 50.7806 29.7309 51.3181 31.541C51.5805 32.459 52.1183 33.4558 52.5902 34.4261C50.505 36.1181 49.2197 38.0852 48.7607 39.3705C47.9347 41.7574 48.577 42.8327 49.7968 43.0818C50.3475 43.2 51.1344 42.9376 51.7116 42.6884C52.4459 42.4524 53.3116 42.046 54.1379 41.4424C55.5414 40.4066 56.8919 38.9638 56.8132 37.0099C56.7738 36.1181 56.5378 35.2392 56.2099 34.3867C57.9803 33.6527 60.2624 33.246 63.1736 33.5868C69.4165 34.3212 70.6493 38.2162 70.413 39.8559C70.177 41.495 68.8656 42.3869 68.433 42.6622C67.9999 42.9378 67.8559 43.0295 67.8953 43.2261C67.9476 43.5147 68.1574 43.5017 68.5247 43.4492C69.0363 43.3575 71.8035 42.1245 71.9213 39.1081C72.1182 35.2524 68.4459 31.0427 61.9541 31.082ZM13.7968 47.318C11.7246 49.5737 8.8395 50.4261 7.59357 49.705C6.25594 48.931 6.78047 45.5999 9.32466 43.2132C10.8721 41.7574 12.8656 40.4063 14.1903 39.5803C14.4918 39.3966 14.9378 39.1345 15.4756 38.8066C15.5673 38.754 15.6199 38.7278 15.6199 38.7278L15.9346 38.5309C16.8655 41.9408 15.974 44.9443 13.7968 47.318ZM28.8788 37.0622C28.1574 38.8198 26.6494 43.3181 25.7314 43.0689C24.9444 42.8591 24.459 39.4492 25.5739 36.0787C26.1378 34.3867 27.3311 32.3671 28.0264 31.5804C29.1542 30.3213 30.4001 29.9013 30.7016 30.4132C31.0822 31.082 29.3246 35.9606 28.8788 37.0622ZM41.3247 43.0163C41.0229 43.1738 40.7347 43.2787 40.6033 43.2C40.5116 43.1474 40.7347 42.9376 40.7347 42.9376C40.7347 42.9376 42.2953 41.2591 42.9115 40.4983C43.2659 40.0525 43.6853 39.528 44.1313 38.9376V39.1081C44.1313 41.1148 42.1901 42.4656 41.3244 43.0163H41.3247ZM50.9246 40.8262C50.7016 40.6687 50.741 40.1442 51.4885 38.5048C51.7771 37.8621 52.4589 36.7869 53.6263 35.7508C53.7574 36.1704 53.8493 36.5771 53.8361 36.9573C53.8229 39.4886 52.0133 40.4328 50.9246 40.8262Z" fill="#CD6799"/>
</svg>
