<svg width="57" height="81" viewBox="0 0 57 81" fill="none" xmlns="http://www.w3.org/2000/svg">
<path d="M56.901 15.8782L51.7262 74.2969L28.4653 80.7953L5.26853 74.3059L0.0991211 15.8782H56.901Z" fill="#E44D26"/>
<path d="M28.5 75.8282L47.296 70.5771L51.7179 20.6555H28.5V75.8282Z" fill="#F16529"/>
<path d="M18.4403 34.9875H28.4999V27.8215H10.6689L10.8391 29.744L12.5869 49.4914H28.4999V42.3255H19.0903L18.4403 34.9875Z" fill="#EBEBEB"/>
<path d="M20.0431 53.0745H12.9048L13.9009 64.3261L28.4673 68.4007L28.5001 68.3918V60.9362L28.4689 60.9445L20.5495 58.7896L20.0431 53.0745Z" fill="#EBEBEB"/>
<path d="M5.38379 0H8.9975V3.59788H12.3033V0H15.9172V10.8953H12.3035V7.24692H8.99772V10.8953H5.38401V0H5.38379Z" fill="black"/>
<path d="M20.6691 3.61314H17.4883V0H27.4664V3.61314H24.2835V10.8953H20.6698V3.61314H20.6696H20.6691Z" fill="black"/>
<path d="M29.05 0H32.8181L35.1359 3.82832L37.4515 0H41.2211V10.8953H37.6221V5.49498L35.1359 9.36885H35.0736L32.5858 5.49498V10.8953H29.05V0Z" fill="black"/>
<path d="M43.0195 0H46.6343V7.29404H51.7162V10.8953H43.0193V0H43.0195Z" fill="black"/>
<path d="M28.4756 49.4914H37.232L36.4064 58.785L28.4753 60.9422V68.3973L43.0533 64.326L43.1602 63.1153L44.8314 44.2497L45.0049 42.3254H28.4756V49.4914Z" fill="white"/>
<path d="M28.4756 34.9699V34.9874H45.652L45.7945 33.3769L46.1186 29.744L46.2885 27.8215H28.4756V34.9702V34.9699Z" fill="white"/>
</svg>
