<svg width="82" height="43" viewBox="0 0 82 43" fill="none" xmlns="http://www.w3.org/2000/svg">
<path d="M41 42.8726C63.6437 42.8726 82 33.2752 82 21.4363C82 9.59736 63.6437 0 41 0C18.3563 0 0 9.59736 0 21.4363C0 33.2752 18.3563 42.8726 41 42.8726Z" fill="url(#paint0_radial)"/>
<path d="M41 41.2799C62.7592 41.2799 80.3984 32.3956 80.3984 21.4362C80.3984 10.4769 62.7592 1.59253 41 1.59253C19.2408 1.59253 1.60156 10.4769 1.60156 21.4362C1.60156 32.3956 19.2408 41.2799 41 41.2799Z" fill="#6181B6"/>
<path d="M48.9759 27.8704L50.9298 17.8689C51.3782 15.6074 50.9938 13.9193 49.8407 12.8682C48.7196 11.8489 46.7977 11.3393 43.979 11.3393H40.5837L41.5446 6.3704C41.5766 6.17929 41.5446 5.98818 41.4165 5.82892C41.2884 5.66966 41.1282 5.60596 40.936 5.60596H36.2595C35.9391 5.60596 35.6829 5.82892 35.6188 6.11559L33.5368 16.7223C33.3446 15.5119 32.8962 14.4926 32.1274 13.6645C30.7501 12.1037 28.604 11.3074 25.6891 11.3074H16.6884C16.368 11.3074 16.1118 11.5304 16.0477 11.8171L11.8516 33.3489C11.8196 33.54 11.8516 33.7311 11.9798 33.8904C12.1079 34.0497 12.268 34.1134 12.4602 34.1134H17.1688C17.4891 34.1134 17.7454 33.8904 17.8095 33.6037L18.8345 28.4119H22.3259C24.1516 28.4119 25.7212 28.2208 26.9063 27.8386C28.1556 27.4245 29.2766 26.7556 30.2696 25.8319C31.0704 25.0993 31.743 24.2711 32.2556 23.3793L31.4227 27.6793C31.3907 27.8704 31.4227 28.0615 31.5509 28.2208C31.679 28.38 31.8391 28.4437 32.0313 28.4437H36.7079C37.0282 28.4437 37.2845 28.2208 37.3485 27.9341L39.6548 16.1489H42.8579C44.2352 16.1489 44.6196 16.4037 44.7477 16.5311C44.8438 16.6267 45.036 17.0089 44.8118 18.1874L42.954 27.7111C42.922 27.9023 42.954 28.0934 43.0821 28.2526C43.2102 28.4119 43.3704 28.4756 43.5626 28.4756H48.3673C48.6556 28.38 48.9118 28.1571 48.9759 27.8704ZM27.3227 19.5889C27.0345 21.086 26.4899 22.1689 25.6891 22.7741C24.8884 23.3793 23.5751 23.6978 21.8454 23.6978H19.7634L21.2688 15.9897H23.9595C25.9454 15.9897 26.7462 16.4037 27.0665 16.7541C27.4829 17.2637 27.579 18.2511 27.3227 19.5889Z" fill="white"/>
<path d="M68.9635 13.6644C67.5861 12.1037 65.44 11.3074 62.5252 11.3074H53.4603C53.14 11.3074 52.8838 11.5303 52.8197 11.817L48.6236 33.317C48.5916 33.5081 48.6236 33.6992 48.7517 33.8585C48.8799 34.0177 49.04 34.0814 49.2322 34.0814H53.9408C54.2611 34.0814 54.5174 33.8585 54.5814 33.5718L55.6064 28.38H59.0978C60.9236 28.38 62.4931 28.1889 63.6783 27.8066C64.9275 27.3926 66.0486 26.7237 67.0416 25.8C67.8744 25.0355 68.5791 24.1755 69.0916 23.2518C69.6041 22.3281 69.9885 21.3089 70.2127 20.194C70.7572 17.4229 70.3408 15.257 68.9635 13.6644ZM64.0627 19.5889C63.7744 21.0859 63.2299 22.1689 62.4291 22.774C61.6283 23.3792 60.315 23.6977 58.5853 23.6977H56.5033L58.0088 15.9896H60.6994C62.6853 15.9896 63.4861 16.4037 63.8064 16.754C64.2549 17.2637 64.351 18.2511 64.0627 19.5889Z" fill="white"/>
<path d="M23.9594 15.3525C25.7531 15.3525 26.9383 15.671 27.5469 16.3399C28.1555 17.0088 28.2836 18.1236 27.9633 19.7162C27.643 21.3725 27.0023 22.5829 26.0734 23.2836C25.1445 23.9843 23.7352 24.3347 21.8453 24.3347H18.9945L20.7563 15.3525H23.9594ZM12.4922 33.4443H17.2008L18.3219 27.7429H22.3578C24.1516 27.7429 25.593 27.5517 26.7461 27.1695C27.8992 26.7873 28.9242 26.1821 29.8852 25.2903C30.6859 24.5577 31.3266 23.7614 31.807 22.9014C32.2875 22.0414 32.6398 21.0858 32.832 20.0347C33.3445 17.4866 32.9602 15.5117 31.7109 14.0784C30.4617 12.6451 28.4758 11.9443 25.7531 11.9443H16.6883L12.4922 33.4443Z" fill="#000004"/>
<path d="M36.2913 6.24292H40.9679L39.8468 11.9444H44.0108C46.6374 11.9444 48.4312 12.3903 49.4241 13.314C50.4171 14.2377 50.7054 15.7029 50.321 17.7414L48.3671 27.7429H43.6265L45.4843 18.2192C45.7085 17.1363 45.6124 16.4037 45.2601 16.0214C44.9077 15.6392 44.1069 15.4163 42.9218 15.4163H39.1741L36.7718 27.7429H32.0952L36.2913 6.24292Z" fill="#000004"/>
<path d="M60.6994 15.3525C62.4931 15.3525 63.6783 15.671 64.2869 16.3399C64.8955 17.0088 65.0236 18.1236 64.7033 19.7162C64.383 21.3725 63.7423 22.5829 62.8134 23.2836C61.8845 23.9843 60.4751 24.3347 58.5853 24.3347H55.7345L57.4962 15.3525H60.6994ZM49.2322 33.4443H53.9408L55.0619 27.7429H59.0978C60.8916 27.7429 62.333 27.5517 63.4861 27.1695C64.6392 26.7873 65.6642 26.1821 66.6251 25.2903C67.4259 24.5577 68.0665 23.7614 68.547 22.9014C69.0275 22.0414 69.3798 21.0858 69.572 20.0347C70.0845 17.4866 69.7001 15.5117 68.4509 14.0784C67.2017 12.6451 65.2158 11.9443 62.4931 11.9443H53.4283L49.2322 33.4443Z" fill="#000004"/>
<defs>
<radialGradient id="paint0_radial" cx="0" cy="0" r="1" gradientUnits="userSpaceOnUse" gradientTransform="translate(24.6165 7.53854) scale(53.8431 53.5415)">
<stop stop-color="white"/>
<stop offset="0.5" stop-color="#4C6B97"/>
<stop offset="1" stop-color="#231F20"/>
</radialGradient>
</defs>
</svg>
