<svg width="40" height="40" viewBox="0 0 40 40" fill="none" xmlns="http://www.w3.org/2000/svg">
<path d="M0 13.4167C0 8.67091 0 6.29803 0.938221 4.49188C1.72885 2.96985 2.96985 1.72885 4.49188 0.938221C6.29803 0 8.67091 0 13.4167 0H26.5833C31.3291 0 33.702 0 35.5081 0.938221C37.0301 1.72885 38.2711 2.96985 39.0618 4.49188C40 6.29803 40 8.67091 40 13.4167V26.5833C40 31.3291 40 33.702 39.0618 35.5081C38.2711 37.0301 37.0301 38.2711 35.5081 39.0618C33.702 40 31.3291 40 26.5833 40H13.4167C8.67091 40 6.29803 40 4.49188 39.0618C2.96985 38.2711 1.72885 37.0301 0.938221 35.5081C0 33.702 0 31.3291 0 26.5833V13.4167Z" fill="#12100E"/>
<path d="M22.1352 20C22.1352 25.2276 17.9262 29.4656 12.7341 29.4656C7.5419 29.4656 3.33325 25.2289 3.33325 20C3.33325 14.7711 7.54222 10.5347 12.7341 10.5347C17.9259 10.5347 22.1352 14.7724 22.1352 20ZM32.4484 20C32.4484 24.9211 30.3437 28.9101 27.7478 28.9101C25.1519 28.9101 23.0472 24.9198 23.0472 20C23.0472 15.0801 25.1519 11.0898 27.7478 11.0898C30.3437 11.0898 32.4484 15.0801 32.4484 20ZM36.6666 20C36.6666 24.4091 35.9263 27.9831 35.0133 27.9831C34.1004 27.9831 33.3601 24.4078 33.3601 20C33.3601 15.5921 34.1004 12.0168 35.0137 12.0168C35.9269 12.0168 36.6666 15.5912 36.6666 20Z" fill="white"/>
</svg>
