<svg width="70" height="70" viewBox="0 0 70 70" fill="none" xmlns="http://www.w3.org/2000/svg">
<path d="M4.375 4.375H65.625V65.625H4.375V4.375Z" fill="#F5DE19"/>
<path d="M45.5199 52.2265C46.0418 53.2865 46.8526 54.1776 47.8589 54.7968C48.8651 55.416 50.0259 55.7383 51.2074 55.7265C53.5918 55.7265 55.1165 54.5343 55.1165 52.8827C55.1165 50.914 53.5502 50.2096 50.9252 49.0612L49.4858 48.4443C45.3296 46.6746 42.5733 44.4587 42.5733 39.7731C42.5733 35.4571 45.8546 32.1693 51.0018 32.1693C52.668 32.049 54.3328 32.4219 55.7885 33.2416C57.2441 34.0612 58.4263 35.2913 59.1874 36.7784L54.6877 39.6549C54.3946 38.9176 53.8843 38.2867 53.2245 37.846C52.5646 37.4054 51.7864 37.1757 50.993 37.1874C50.6469 37.1528 50.2973 37.1906 49.9666 37.2985C49.6359 37.4064 49.3313 37.5821 49.0722 37.8142C48.8131 38.0463 48.6052 38.3299 48.4617 38.6468C48.3183 38.9637 48.2424 39.3071 48.239 39.6549C48.239 41.3809 49.3087 42.0809 51.7783 43.1549L53.2177 43.7718C58.109 45.8696 60.874 48.0068 60.874 52.8127C60.874 57.9949 56.803 60.8343 51.3365 60.8343C49.2065 60.97 47.0828 60.4864 45.2216 59.4419C43.3604 58.3974 41.8412 56.8365 40.8474 54.9477L45.5199 52.2265ZM25.1871 52.7252C26.0905 54.3287 26.913 55.6849 28.8905 55.6849C30.7805 55.6849 31.9749 54.9456 31.9749 52.069V32.4974H37.7302V52.1456C37.7302 58.1043 34.2302 60.8168 29.1355 60.8168C27.3347 60.9152 25.5462 60.4664 24.0052 59.5294C22.4641 58.5924 21.2427 57.211 20.5015 55.5668L25.1871 52.7252Z" fill="black"/>
</svg>
