<svg width="70" height="70" viewBox="0 0 70 70" fill="none" xmlns="http://www.w3.org/2000/svg">
<path d="M35 65.6251C34.1737 65.6254 33.3619 65.4081 32.6462 64.9951L25.1562 60.5611C24.0384 59.9354 24.5831 59.7145 24.9528 59.5854C26.1417 59.2181 27.28 58.7037 28.3412 58.0542C28.4301 58.0131 28.5279 57.9953 28.6255 58.0026C28.7231 58.0099 28.8173 58.0419 28.8991 58.0957L34.6544 61.5148C34.7615 61.5715 34.8809 61.6011 35.0022 61.6011C35.1234 61.6011 35.2428 61.5715 35.35 61.5148L57.7937 48.5604C57.8988 48.4975 57.9856 48.4084 58.0458 48.3018C58.1061 48.1952 58.1375 48.0747 58.1372 47.9523V22.0392C58.1373 21.9148 58.1053 21.7925 58.0444 21.6841C57.9834 21.5757 57.8956 21.4848 57.7894 21.4201L35.3456 8.47669C35.2398 8.41708 35.1204 8.38577 34.9989 8.38577C34.8774 8.38577 34.758 8.41708 34.6522 8.47669L12.2216 21.4245C12.1146 21.4878 12.0257 21.5776 11.9636 21.6853C11.9015 21.793 11.8683 21.9149 11.8672 22.0392V47.9414C11.8675 48.0635 11.9003 48.1834 11.9621 48.2887C12.024 48.394 12.1128 48.481 12.2194 48.5407L18.375 52.0932C21.7109 53.7601 23.7541 51.7957 23.7541 49.8226V24.2486C23.7541 24.0745 23.8232 23.9076 23.9463 23.7845C24.0693 23.6615 24.2363 23.5923 24.4103 23.5923H27.2541C27.4281 23.5923 27.595 23.6615 27.7181 23.7845C27.8412 23.9076 27.9103 24.0745 27.9103 24.2486V49.8248C27.9103 54.2764 25.4866 56.8248 21.2647 56.8248C19.4433 56.8565 17.6505 56.3695 16.0956 55.4204L10.1959 52.0364C9.47971 51.6193 8.88543 51.0216 8.47241 50.3031C8.05939 49.5845 7.84208 48.7702 7.84218 47.9414V22.0392C7.84005 21.2091 8.05644 20.3931 8.46961 19.6731C8.88277 18.9531 9.47815 18.3546 10.1959 17.9376L32.6419 4.97888C33.3649 4.5833 34.1758 4.37598 35 4.37598C35.8242 4.37598 36.6351 4.5833 37.3581 4.97888L59.8019 17.9376C60.518 18.3539 61.1124 18.9507 61.5258 19.6685C61.9392 20.3863 62.1571 21.1999 62.1578 22.0282V47.9414C62.1566 48.7702 61.9385 49.5842 61.5252 50.3026C61.1119 51.021 60.5177 51.6187 59.8019 52.0364L37.3581 64.9951C36.6411 65.4088 35.8277 65.6261 35 65.6251Z" fill="#83CD29"/>
<path d="M30.743 39.2724C30.743 39.0983 30.8122 38.9314 30.9353 38.8083C31.0583 38.6853 31.2252 38.6161 31.3993 38.6161H34.3021C34.4572 38.6166 34.6071 38.6721 34.7252 38.7726C34.8434 38.8731 34.9221 39.0122 34.9474 39.1652C35.3849 42.1205 36.6974 43.6102 42.6321 43.6102C47.3593 43.6102 49.374 42.5405 49.374 40.0314C49.374 38.5855 48.803 37.5114 41.4552 36.7918C35.3127 36.1836 31.5152 34.823 31.5152 29.9143C31.5152 25.3861 35.3324 22.6846 41.7309 22.6846C48.9212 22.6846 52.4802 25.1805 52.9309 30.5355C52.9377 30.6249 52.9262 30.7148 52.897 30.7996C52.8678 30.8843 52.8216 30.9622 52.7611 31.0284C52.7006 31.0947 52.6272 31.1478 52.5455 31.1845C52.4637 31.2212 52.3752 31.2408 52.2855 31.2421H49.363C49.2164 31.24 49.0747 31.1889 48.9605 31.0969C48.8464 31.005 48.7663 30.8774 48.733 30.7346C48.0352 27.6261 46.3268 26.633 41.733 26.633C36.5705 26.633 35.9712 28.4311 35.9712 29.7786C35.9712 31.4105 36.6799 31.8874 43.6493 32.8083C50.5465 33.7205 53.8234 35.0111 53.8234 39.8586C53.8234 44.7499 49.7459 47.5499 42.6343 47.5499C32.8015 47.563 30.743 43.0546 30.743 39.2724Z" fill="#83CD29"/>
</svg>
