<svg width="70" height="70" viewBox="0 0 70 70" fill="none" xmlns="http://www.w3.org/2000/svg">
<path d="M6.92786 7.6936H63.0722V62.3067H6.92786V7.6936Z" fill="#0C0824"/>
<path d="M6.92781 7.69368H63.0722V62.3068H6.92781V7.69368ZM4.375 64.8596H65.625V5.14087H4.375V64.8596ZM45.6684 29.6409C43.6516 29.6409 42.9625 30.6624 42.9625 31.5046C42.9625 32.4234 43.4219 33.0621 46.1278 34.4643C50.1353 36.4046 51.3778 38.2662 51.3778 40.9984C51.3778 45.0824 48.265 47.2765 44.0541 47.2765C42.2469 47.3435 40.4506 46.968 38.8216 46.1827C38.6422 46.1062 38.6181 45.9793 38.6181 45.7737V42.0177C38.6181 41.7618 38.745 41.6852 38.9244 41.8143C40.4543 42.7981 42.2351 43.3206 44.0541 43.3193C46.0709 43.3193 46.9131 42.4771 46.9131 41.3287C46.9131 40.4099 46.3269 39.594 43.7478 38.2662C40.1231 36.5315 38.6181 34.7662 38.6181 31.8349C38.6181 28.5427 41.195 25.8127 45.6619 25.8127C47.2167 25.746 48.7694 25.9891 50.2294 26.5281C50.3135 26.5826 50.3815 26.6586 50.4265 26.7482C50.4714 26.8378 50.4918 26.9377 50.4853 27.0377V30.5377C50.4853 30.7412 50.3584 30.8702 50.1025 30.7937C48.7532 30.0169 47.2186 29.62 45.6619 29.6452L45.6684 29.6409ZM23.7191 32.6771C24.3053 32.7274 24.7647 32.7274 25.7863 32.7274C28.7722 32.7274 31.5788 31.6818 31.5788 27.624C31.5788 24.3821 29.5619 22.7502 26.1691 22.7502C25.1475 22.7502 24.1784 22.8006 23.7191 22.8268V32.6771ZM19.1756 19.1146C19.1756 18.9352 19.5322 18.8084 19.7378 18.8084C21.9314 18.7187 24.1267 18.6764 26.3222 18.6815C33.3922 18.6815 36.1484 22.5599 36.1484 27.5124C36.1484 33.994 31.4519 36.7765 25.6856 36.7765C24.7166 36.7765 24.3841 36.7262 23.695 36.7262V46.5262C23.695 46.7296 23.6184 46.8324 23.3888 46.8324H19.4841C19.2806 46.8324 19.1778 46.7559 19.1778 46.5262V19.1256L19.1756 19.1146Z" fill="#31C5F0"/>
</svg>
