<svg width="70" height="70" viewBox="0 0 70 70" fill="none" xmlns="http://www.w3.org/2000/svg">
<path d="M35 40.4121C38.0203 40.4121 40.4688 37.9637 40.4688 34.9434C40.4688 31.9231 38.0203 29.4746 35 29.4746C31.9797 29.4746 29.5312 31.9231 29.5312 34.9434C29.5312 37.9637 31.9797 40.4121 35 40.4121Z" fill="#00D8FF"/>
<path d="M35 47.482C28.4269 47.641 21.8702 46.755 15.575 44.857C12.667 43.9352 9.95473 42.483 7.57531 40.5739C6.66735 39.9217 5.91122 39.0808 5.35881 38.1089C4.8064 37.137 4.47079 36.0571 4.375 34.9433C4.375 31.3273 8.3475 27.7836 15.0019 25.4648C21.4654 23.4102 28.2186 22.4145 35 22.5161C41.6909 22.4226 48.3537 23.4004 54.7356 25.4123C57.5363 26.3052 60.1565 27.6872 62.475 29.4942C63.3674 30.116 64.1122 30.9264 64.6566 31.8681C65.201 32.8098 65.5316 33.8596 65.625 34.9433C65.625 38.7014 61.1844 42.5098 54.0312 44.8767C47.858 46.7128 41.4396 47.5915 35 47.482ZM35 25.1323C28.5121 25.0456 22.0518 25.9923 15.8616 27.9367C9.73656 30.0739 6.99125 32.9964 6.99125 34.9367C6.99125 36.9667 9.94219 40.1583 16.4216 42.3742C22.4439 44.1808 28.7145 45.0217 35 44.8658C41.1609 44.976 47.3023 44.1423 53.2109 42.3939C59.9375 40.1648 63 36.9689 63 34.9433C62.8896 34.2482 62.6363 33.5835 62.256 32.9912C61.8757 32.3989 61.3768 31.892 60.7906 31.5023C58.7163 29.8992 56.3756 28.6744 53.8759 27.8842C47.7707 25.9674 41.3984 25.0384 35 25.1323Z" fill="#00D8FF"/>
<path d="M22.5751 62.219C21.5547 62.2425 20.5462 61.9949 19.6526 61.5015C16.5201 59.6947 15.4351 54.484 16.7498 47.5606C18.1993 40.9349 20.7109 34.5872 24.1873 28.7634C27.4483 22.9208 31.623 17.6376 36.5532 13.114C38.7258 11.1337 41.232 9.55397 43.9557 8.4481C44.9409 7.9864 46.0156 7.74707 47.1036 7.74707C48.1915 7.74707 49.2662 7.9864 50.2514 8.4481C53.5086 10.325 54.587 16.0737 53.0667 23.4522C51.5724 29.7184 49.126 35.7184 45.8129 41.2431C42.6667 47.0167 38.6234 52.2539 33.8342 56.759C31.5828 58.817 28.9699 60.4405 26.1276 61.5475C24.9897 61.9698 23.7887 62.1969 22.5751 62.219ZM26.4536 30.0628C23.1375 35.6394 20.7303 41.7084 19.3223 48.0419C18.1126 54.4184 19.2742 58.2531 20.9629 59.2287C22.7129 60.2415 26.9611 59.2812 32.1192 54.775C36.6911 50.4589 40.5503 45.4457 43.5532 39.9219C46.7272 34.6402 49.0738 28.9037 50.5117 22.9118C51.9423 15.9665 50.7064 11.714 48.952 10.7034C48.2945 10.4515 47.5918 10.3387 46.8885 10.3722C46.1851 10.4057 45.4964 10.5848 44.8657 10.8981C42.4413 11.8985 40.2124 13.3189 38.2814 15.0937C33.571 19.4267 29.5832 24.4845 26.4689 30.0759L26.4536 30.0628Z" fill="#00D8FF"/>
<path d="M47.4186 62.2476C44.4545 62.2476 40.6898 60.4538 36.7698 57.0829C31.7533 52.5182 27.5079 47.1722 24.1983 41.2519C20.7655 35.5084 18.2738 29.2525 16.8177 22.7216C16.1861 19.8483 16.0691 16.8858 16.472 13.9716C16.5652 12.8906 16.8944 11.8431 17.4364 10.9032C17.9784 9.96316 18.72 9.15352 19.6089 8.53133C22.8617 6.64789 28.3808 8.58383 34.0136 13.5845C38.6961 18.008 42.6726 23.1235 45.8042 28.7526C49.2349 34.3621 51.7527 40.4809 53.2636 46.8804C53.9223 49.8591 54.0239 52.934 53.5633 55.9498C53.4537 57.0619 53.1049 58.1372 52.5408 59.1019C51.9767 60.0666 51.2106 60.8979 50.2952 61.5388C49.4161 62.026 48.4233 62.2706 47.4186 62.2476ZM26.4623 39.9351C29.6374 45.5929 33.6927 50.7093 38.4761 55.0923C43.3958 59.3251 47.2983 60.2351 48.9761 59.2485C50.7261 58.2313 52.0167 54.0794 50.6867 47.3616C49.2296 41.2518 46.8146 35.4111 43.5314 30.0563C40.5429 24.6688 36.7474 19.7704 32.2767 15.5313C26.9742 10.8238 22.6736 9.77164 20.9214 10.7866C20.3753 11.2304 19.9271 11.7827 19.6052 12.4084C19.2833 13.0342 19.0946 13.7199 19.0511 14.4223C18.7033 17.0212 18.8166 19.6611 19.3858 22.2207C20.7864 28.4663 23.1762 34.448 26.4645 39.9394L26.4623 39.9351Z" fill="#00D8FF"/>
</svg>
