<svg width="378" height="336" viewBox="0 0 378 336" fill="none" xmlns="http://www.w3.org/2000/svg">
<g filter="url(#filter0_d)">
<path d="M269.528 170.686C269.528 223.464 226.742 266.25 173.964 266.25C121.185 266.25 78.3997 223.464 78.3997 170.686C78.3997 117.907 121.185 75.1216 173.964 75.1216C226.742 75.1216 269.528 117.907 269.528 170.686Z" fill="#FFE785"/>
</g>
<g filter="url(#filter1_d)">
<ellipse cx="174.196" cy="170.221" rx="54.5086" ry="54.2766" fill="#FFDB6B"/>
</g>
<path d="M150.798 123.148V97.5761H123.136M177.235 123.039V78.7239H141.006V11.8843H177.235M201.469 132.832V65.9925M141.006 192.816V222.686H113.834V248.639M166.954 203.099V290.995H141.006V316.702M201.469 189.878V226.848H234.271V276.06H207.834" stroke="#855B0B" stroke-opacity="0.67" stroke-linecap="round" stroke-dasharray="2 5"/>
<path fill-rule="evenodd" clip-rule="evenodd" d="M183.434 6.98077L183.42 6.97985C182.775 6.94985 181.865 7.72505 181.529 8.28573C181.16 8.78955 181.153 9.45862 181.475 10.2325L181.526 10.3494C182.375 12.4397 185.56 15.6206 187.642 16.4915C188.439 16.8642 189.149 16.871 189.708 16.4681C190.2 16.187 191.007 15.2514 190.983 14.5869C190.961 14.3136 190.834 14.0904 190.637 13.8872L190.588 13.8394L190.454 13.7154C189.969 13.2812 189.128 12.663 188.868 12.6083C188.563 12.5447 188.356 12.6017 188.029 12.7817L187.907 12.8509C187.675 12.9848 187.592 13.0077 187.482 12.9675C186.321 12.4906 185.501 11.6673 185.021 10.4863C184.99 10.3989 185.005 10.3224 185.106 10.1372L185.16 10.0427C185.38 9.65828 185.454 9.44097 185.384 9.10635L185.372 9.06298C185.258 8.73192 184.561 7.79785 184.174 7.39121L184.112 7.32814C183.91 7.13007 183.689 7.0027 183.434 6.98077ZM183.38 7.69576L183.406 7.70086C183.453 7.71398 183.508 7.74615 183.569 7.79917L183.614 7.84026L183.699 7.92955C184.028 8.29284 184.665 9.14955 184.687 9.25199C184.706 9.34816 184.684 9.42853 184.58 9.61795L184.525 9.71452C184.295 10.1171 184.224 10.3767 184.356 10.7438C184.914 12.1165 185.874 13.0812 187.226 13.6359C187.575 13.7634 187.822 13.7125 188.172 13.5227L188.292 13.4549C188.53 13.3175 188.617 13.2876 188.723 13.3097C188.826 13.3315 189.752 14.0266 190.092 14.3532L190.131 14.3926C190.219 14.4828 190.267 14.5668 190.272 14.6292C190.277 14.775 190.131 15.0488 189.873 15.3477C189.69 15.5605 189.451 15.7781 189.348 15.8502L189.323 15.8661C188.99 16.1043 188.578 16.1146 188.033 15.8823L187.929 15.836C186.047 15.0483 183.086 12.1138 182.231 10.1849L182.18 10.0656C181.915 9.47961 181.893 9.05119 182.084 8.73947L182.122 8.68238C182.342 8.31729 183.007 7.74224 183.338 7.69798L183.38 7.69576ZM187.324 7.09826L187.373 7.10038C189.297 7.31513 190.816 8.84082 191.032 10.7749C191.054 10.9715 190.913 11.1488 190.718 11.1709C190.522 11.193 190.346 11.0515 190.324 10.8549C190.145 9.25347 188.887 7.99022 187.294 7.81241C187.098 7.79058 186.957 7.61349 186.979 7.41687C186.997 7.25301 187.123 7.12731 187.277 7.10259L187.324 7.09826ZM187.353 8.79084L187.401 8.79692C188.385 8.98961 189.153 9.76209 189.345 10.7506C189.382 10.9448 189.256 11.1329 189.063 11.1708C188.87 11.2086 188.683 11.0819 188.645 10.8877C188.509 10.1855 187.963 9.63696 187.265 9.5001C187.072 9.46225 186.946 9.27416 186.983 9.07998C187.015 8.91817 187.15 8.80319 187.306 8.79127L187.353 8.79084Z" fill="#3D84D6"/>
<circle cx="186.5" cy="11.5" r="10.5" stroke="#3D84D6" stroke-linecap="round" stroke-dasharray="2 5"/>
<circle cx="201.071" cy="56.672" r="9.05729" stroke="#86A7E7" stroke-linecap="round" stroke-dasharray="2 5"/>
<path fill-rule="evenodd" clip-rule="evenodd" d="M196.849 52.2716L196.8 52.2664C196.619 52.2598 196.457 52.3876 196.425 52.5707L196.42 52.6204C196.413 52.8012 196.541 52.9635 196.724 52.9952L197.463 53.1229L197.911 58.4573L197.92 58.5375C198.01 59.1458 198.533 59.6031 199.156 59.6031H204.499L204.579 59.6005C205.165 59.5631 205.651 59.1202 205.736 58.5318L206.201 55.3209L206.209 55.2471C206.251 54.6601 205.786 54.1506 205.188 54.1506H198.286L198.171 52.7789L198.162 52.7246C198.129 52.5835 198.014 52.4731 197.868 52.4478L196.849 52.2716ZM199.1 58.8656C198.857 58.8391 198.663 58.6443 198.643 58.3961L198.348 54.885H205.188L205.231 54.8881C205.385 54.9111 205.497 55.0557 205.474 55.2157L205.009 58.4264L204.998 58.4838C204.939 58.7083 204.735 58.8687 204.499 58.8687H199.156L199.1 58.8656ZM198.333 61.1204C198.333 60.7111 198.665 60.3787 199.074 60.3787C199.484 60.3787 199.816 60.711 199.816 61.1204C199.816 61.5299 199.484 61.8616 199.074 61.8616C198.665 61.8616 198.333 61.5298 198.333 61.1204ZM203.842 61.1204C203.842 60.711 204.174 60.3787 204.583 60.3787C204.993 60.3787 205.325 60.711 205.325 61.1204C205.325 61.5299 204.993 61.8616 204.583 61.8616C204.174 61.8616 203.842 61.5299 203.842 61.1204ZM204.081 56.3272C204.081 56.1244 203.916 55.96 203.714 55.96H202.356L202.306 55.9634C202.127 55.9877 201.989 56.1413 201.989 56.3272C201.989 56.53 202.153 56.6944 202.356 56.6944H203.714L203.763 56.6911C203.943 56.6667 204.081 56.5131 204.081 56.3272Z" fill="#3D84D6"/>
<circle cx="113.435" cy="97.3073" r="9.05729" stroke="#86A7E7" stroke-linecap="round" stroke-dasharray="2 5"/>
<path fill-rule="evenodd" clip-rule="evenodd" d="M117.763 95.4273C118.091 95.6814 118.292 96.0588 118.326 96.4696L118.331 96.568V100.538C118.331 101.561 117.523 102.394 116.51 102.447H115.536C115.07 102.438 114.694 102.076 114.66 101.621L114.655 101.551V100.152C114.655 99.9995 114.542 99.8727 114.39 99.8477L114.346 99.8428H113.038C112.882 99.8477 112.755 99.9603 112.735 100.107L112.731 100.152V101.547C112.731 101.576 112.725 101.61 112.721 101.635L112.716 101.645L112.71 101.679C112.652 102.095 112.31 102.413 111.884 102.443L111.82 102.447H110.944C109.92 102.447 109.083 101.645 109.029 100.636V96.568C109.034 96.1514 109.215 95.7646 109.519 95.4953L112.569 93.0425C113.191 92.5485 114.062 92.529 114.703 92.9838L114.782 93.0425L117.763 95.4273ZM117.645 100.616L117.651 100.538V96.5724C117.645 96.3624 117.558 96.1661 117.406 96.0197L117.342 95.9654L114.356 93.5762C113.984 93.2775 113.455 93.2634 113.063 93.5223L112.99 93.5762L110.013 95.9756C109.842 96.1024 109.739 96.2934 109.715 96.4941L109.709 96.5724V100.538C109.709 101.189 110.218 101.723 110.865 101.762H111.82C111.928 101.762 112.021 101.689 112.035 101.586L112.045 101.498L112.05 101.473V100.152C112.05 99.6279 112.451 99.202 112.966 99.1623H114.346C114.87 99.1623 115.295 99.5643 115.335 100.078V101.552C115.335 101.654 115.409 101.743 115.506 101.762H116.417C117.073 101.762 117.606 101.258 117.645 100.616Z" fill="#3D84D6"/>
<circle cx="113.925" cy="257.891" r="9.05729" stroke="#86A7E7" stroke-linecap="round" stroke-dasharray="2 5"/>
<path fill-rule="evenodd" clip-rule="evenodd" d="M111.469 253.639C109.671 254.218 108.87 256.18 109.472 258.052C109.778 258.934 110.276 259.726 110.929 260.376C111.825 261.247 112.81 262.013 113.869 262.664L113.989 262.736C114.104 262.805 114.248 262.804 114.362 262.733L114.474 262.663C115.532 262.013 116.516 261.247 117.41 260.379C118.066 259.726 118.564 258.934 118.867 258.06C119.472 256.181 118.667 254.218 116.869 253.639L116.739 253.601C115.914 253.374 115.038 253.486 114.3 253.904L114.168 253.981L114.039 253.904C113.26 253.462 112.329 253.362 111.469 253.639ZM113.864 254.637L113.96 254.707C114.087 254.797 114.258 254.796 114.384 254.702C115.035 254.215 115.877 254.073 116.649 254.32C118.043 254.769 118.677 256.315 118.188 257.833C117.923 258.597 117.484 259.296 116.908 259.869L116.649 260.115C115.953 260.762 115.199 261.348 114.4 261.864L114.171 262.008L114.241 262.052C113.23 261.431 112.287 260.697 111.431 259.866C110.858 259.296 110.419 258.597 110.152 257.826C109.665 256.314 110.296 254.769 111.689 254.32C112.424 254.084 113.225 254.201 113.864 254.637ZM116.065 255.435C115.876 255.375 115.675 255.479 115.615 255.667C115.555 255.855 115.659 256.057 115.847 256.117C116.217 256.235 116.481 256.568 116.514 256.961C116.531 257.158 116.704 257.304 116.901 257.288C117.098 257.271 117.244 257.098 117.228 256.901C117.171 256.221 116.712 255.642 116.065 255.435Z" fill="#3D84D6"/>
<circle cx="140.852" cy="325.943" r="9.05729" stroke="#86A7E7" stroke-linecap="round" stroke-dasharray="2 5"/>
<path fill-rule="evenodd" clip-rule="evenodd" d="M141.111 321.292C138.855 321.284 137.011 323.079 136.938 325.326L136.936 325.466C136.973 326.567 137.348 327.617 138.008 328.482L138.163 328.685C138.793 329.486 139.542 330.189 140.382 330.768L140.585 330.905L140.614 330.928C140.902 331.135 141.291 331.135 141.58 330.928L141.604 330.908C142.271 330.475 142.886 329.967 143.437 329.393C144.558 328.207 145.233 326.878 145.258 325.529L145.258 325.479C145.266 323.217 143.476 321.368 141.236 321.294L141.111 321.292ZM141.109 322.034C142.958 322.041 144.46 323.519 144.516 325.359L144.518 325.522C144.496 326.653 143.904 327.819 142.902 328.88C142.391 329.412 141.818 329.885 141.197 330.287L141.155 330.318C141.122 330.347 141.072 330.347 141.039 330.318L140.998 330.288C140.073 329.684 139.26 328.921 138.598 328.034C138.065 327.335 137.749 326.499 137.686 325.628L137.676 325.453C137.682 323.598 139.156 322.092 140.991 322.036L141.109 322.034ZM141.097 323.936C140.221 323.936 139.512 324.648 139.512 325.526C139.512 326.404 140.221 327.116 141.097 327.116C141.973 327.116 142.682 326.404 142.682 325.526C142.682 324.648 141.973 323.936 141.097 323.936ZM141.097 324.679C141.564 324.679 141.942 325.058 141.942 325.526C141.942 325.994 141.564 326.374 141.097 326.374C140.63 326.374 140.252 325.994 140.252 325.526C140.252 325.058 140.63 324.679 141.097 324.679Z" fill="#3D84D6"/>
<circle cx="198.133" cy="276.005" r="9.05729" stroke="#86A7E7" stroke-linecap="round" stroke-dasharray="2 5"/>
<path fill-rule="evenodd" clip-rule="evenodd" d="M200.541 271.649C200.519 271.482 200.377 271.354 200.206 271.354C200.018 271.354 199.867 271.506 199.867 271.695V272.073H196.894V271.695L196.891 271.649C196.868 271.482 196.726 271.354 196.555 271.354C196.368 271.354 196.216 271.506 196.216 271.695V272.081C194.827 272.177 193.972 273.077 193.972 274.529V278.65C193.972 280.209 194.931 281.145 196.467 281.145H200.289C201.827 281.145 202.784 280.224 202.784 278.685V274.529C202.789 273.076 201.936 272.177 200.545 272.081V271.695L200.541 271.649ZM199.867 272.756V273.194L199.87 273.24C199.892 273.407 200.034 273.535 200.206 273.535C200.393 273.535 200.545 273.382 200.545 273.194V272.766C201.557 272.85 202.11 273.46 202.106 274.528V274.726H194.65V274.529C194.65 273.462 195.205 272.851 196.216 272.766V273.194L196.219 273.24C196.241 273.407 196.383 273.535 196.555 273.535C196.742 273.535 196.894 273.382 196.894 273.194V272.756H199.867ZM194.65 275.409V278.65C194.65 279.827 195.3 280.462 196.467 280.462H200.289C201.46 280.462 202.106 279.84 202.106 278.685L202.106 275.409H194.65ZM200.729 276.846C200.729 276.657 200.577 276.504 200.39 276.504L200.34 276.507C200.174 276.53 200.047 276.673 200.047 276.846C200.047 277.034 200.198 277.187 200.39 277.187L200.436 277.184C200.601 277.162 200.729 277.019 200.729 276.846ZM198.384 276.504C198.572 276.504 198.723 276.657 198.723 276.846C198.723 277.019 198.596 277.162 198.43 277.184L198.384 277.187C198.193 277.187 198.041 277.034 198.041 276.846C198.041 276.673 198.169 276.53 198.334 276.507L198.384 276.504ZM196.714 276.846C196.714 276.657 196.562 276.504 196.375 276.504L196.325 276.507C196.159 276.53 196.032 276.673 196.032 276.846C196.032 277.034 196.183 277.187 196.371 277.187L196.421 277.184C196.586 277.162 196.714 277.019 196.714 276.846ZM200.39 278.274C200.577 278.274 200.729 278.427 200.729 278.616C200.729 278.789 200.601 278.932 200.436 278.954L200.39 278.957C200.198 278.957 200.047 278.805 200.047 278.616C200.047 278.443 200.174 278.3 200.34 278.277L200.39 278.274ZM198.723 278.616C198.723 278.427 198.572 278.274 198.384 278.274L198.334 278.277C198.169 278.3 198.041 278.443 198.041 278.616C198.041 278.805 198.193 278.957 198.384 278.957L198.43 278.954C198.596 278.932 198.723 278.789 198.723 278.616ZM196.375 278.274C196.562 278.274 196.714 278.427 196.714 278.616C196.714 278.789 196.586 278.932 196.421 278.954L196.371 278.957C196.183 278.957 196.032 278.805 196.032 278.616C196.032 278.443 196.159 278.3 196.325 278.277L196.375 278.274Z" fill="#3D84D6"/>
<path d="M90.0482 155.933H61.3442V127.135C61.3442 125.069 59.6487 123.368 57.5897 123.368H36.2132C34.1542 123.368 32.4586 125.069 32.4586 127.135V155.933H13.8071C25.1918 170.029 42.5111 179.02 61.9498 179.02C73.5767 179.02 84.477 175.8 93.8027 170.211V159.7C93.8027 157.634 92.1071 155.933 90.0482 155.933Z" fill="url(#paint0_linear)" fill-opacity="0.74"/>
<path d="M9.11345 171.213C5.31618 172.169 3.75452 172.732 0 173.492V181.208C0 183.273 1.69559 184.974 3.75452 184.974H32.4585V213.773C32.4585 215.839 34.154 217.54 36.213 217.54H57.5895C59.6485 217.54 61.3441 215.839 61.3441 213.773V198.402C57.5608 175.193 36.4978 164.323 9.11345 171.213Z" fill="url(#paint1_linear)" fill-opacity="0.3"/>
<path d="M61.3441 213.712V184.914H90.048C92.1069 184.914 93.8025 183.213 93.8025 181.147V159.7C93.8025 157.634 92.1069 155.933 90.048 155.933H71.5782C53.5322 166.808 41.4814 186.615 41.4814 209.277C41.4814 212.072 41.6631 214.806 42.0265 217.479H57.5896C59.6485 217.479 61.3441 215.778 61.3441 213.712Z" fill="url(#paint2_linear)" fill-opacity="0.7"/>
<path d="M51.2311 143.357C51.2311 136.37 50.0805 129.626 47.961 123.368H36.213C34.154 123.368 32.4584 125.069 32.4584 127.135V155.934H3.75452C1.69559 155.934 0 157.635 0 159.7V181.147C0 183.213 1.69559 184.914 3.75452 184.914H32.4584V187.952C44.0248 176.651 51.2311 160.855 51.2311 143.357Z" fill="url(#paint3_linear)" fill-opacity="0.74"/>
<path d="M117.203 156.281V164H111.719V141.25H120.797C122.536 141.25 124.073 141.573 125.406 142.219C126.75 142.854 127.786 143.766 128.516 144.953C129.255 146.13 129.625 147.469 129.625 148.969C129.625 151.188 128.828 152.964 127.234 154.297C125.651 155.62 123.474 156.281 120.703 156.281H117.203ZM117.203 152.047H120.797C121.859 152.047 122.667 151.781 123.219 151.25C123.781 150.719 124.062 149.969 124.062 149C124.062 147.938 123.776 147.089 123.203 146.453C122.63 145.818 121.849 145.495 120.859 145.484H117.203V152.047ZM182.063 159.75H174.548L173.235 164H167.376L175.719 141.25H180.876L189.282 164H183.391L182.063 159.75ZM175.86 155.516H180.751L178.298 147.625L175.86 155.516ZM246.298 145.484H239.47V164H233.986V145.484H227.283V141.25H246.298V145.484ZM299.033 159.75H291.518L290.205 164H284.346L292.689 141.25H297.846L306.252 164H300.361L299.033 159.75ZM292.83 155.516H297.721L295.268 147.625L292.83 155.516ZM366.299 164H360.846V154.5H352.768V164H347.284V141.25H352.768V150.281H360.846V141.25H366.299V164Z" fill="url(#paint4_linear)"/>
<path d="M109.986 192.92L113.697 185.781H115.826L110.924 194.697V200H109.049V194.697L104.146 185.781H106.295L109.986 192.92ZM129.107 193.35C129.107 194.743 128.872 195.96 128.404 197.002C127.935 198.037 127.271 198.828 126.411 199.375C125.552 199.922 124.549 200.195 123.404 200.195C122.284 200.195 121.291 199.922 120.425 199.375C119.559 198.822 118.885 198.037 118.404 197.021C117.928 195.999 117.684 194.818 117.671 193.477V192.451C117.671 191.084 117.909 189.876 118.384 188.828C118.859 187.78 119.53 186.979 120.396 186.426C121.268 185.866 122.264 185.586 123.384 185.586C124.523 185.586 125.526 185.863 126.392 186.416C127.264 186.963 127.935 187.76 128.404 188.809C128.872 189.85 129.107 191.064 129.107 192.451V193.35ZM127.241 192.432C127.241 190.745 126.903 189.453 126.226 188.555C125.549 187.65 124.601 187.197 123.384 187.197C122.199 187.197 121.265 187.65 120.581 188.555C119.904 189.453 119.556 190.703 119.536 192.305V193.35C119.536 194.984 119.878 196.27 120.562 197.207C121.252 198.138 122.199 198.604 123.404 198.604C124.614 198.604 125.552 198.164 126.216 197.285C126.88 196.4 127.222 195.133 127.241 193.486V192.432ZM142.729 185.781V195.449C142.722 196.79 142.299 197.887 141.459 198.74C140.626 199.593 139.493 200.072 138.061 200.176L137.563 200.195C136.007 200.195 134.767 199.775 133.842 198.936C132.918 198.096 132.449 196.94 132.436 195.469V185.781H134.291V195.41C134.291 196.439 134.575 197.24 135.141 197.812C135.707 198.379 136.515 198.662 137.563 198.662C138.624 198.662 139.435 198.379 139.995 197.812C140.561 197.246 140.844 196.449 140.844 195.42V185.781H142.729ZM151.703 194.248H148.363V200H146.478V185.781H151.185C152.787 185.781 154.017 186.146 154.877 186.875C155.742 187.604 156.175 188.665 156.175 190.059C156.175 190.944 155.935 191.715 155.453 192.373C154.977 193.031 154.313 193.522 153.461 193.848L156.8 199.883V200H154.789L151.703 194.248ZM148.363 192.715H151.244C152.175 192.715 152.914 192.474 153.461 191.992C154.014 191.51 154.291 190.866 154.291 190.059C154.291 189.18 154.027 188.506 153.5 188.037C152.979 187.568 152.224 187.331 151.234 187.324H148.363V192.715ZM176.301 200H174.416V193.428H167.248V200H165.373V185.781H167.248V191.895H174.416V185.781H176.301V200ZM188.468 193.428H182.306V198.467H189.464V200H180.431V185.781H189.366V187.324H182.306V191.895H188.468V193.428ZM200.45 196.289H194.493L193.155 200H191.221L196.651 185.781H198.291L203.731 200H201.807L200.45 196.289ZM195.059 194.746H199.893L197.471 188.096L195.059 194.746ZM208.33 198.467H215.068V200H206.445V185.781H208.33V198.467ZM225.136 187.324H220.565V200H218.7V187.324H214.139V185.781H225.136V187.324ZM238.973 200H237.088V193.428H229.92V200H228.045V185.781H229.92V191.895H237.088V185.781H238.973V200ZM259.801 193.35C259.801 194.743 259.567 195.96 259.098 197.002C258.629 198.037 257.965 198.828 257.106 199.375C256.246 199.922 255.244 200.195 254.098 200.195C252.978 200.195 251.985 199.922 251.12 199.375C250.254 198.822 249.58 198.037 249.098 197.021C248.623 195.999 248.379 194.818 248.366 193.477V192.451C248.366 191.084 248.603 189.876 249.079 188.828C249.554 187.78 250.224 186.979 251.09 186.426C251.963 185.866 252.959 185.586 254.079 185.586C255.218 185.586 256.22 185.863 257.086 186.416C257.959 186.963 258.629 187.76 259.098 188.809C259.567 189.85 259.801 191.064 259.801 192.451V193.35ZM257.936 192.432C257.936 190.745 257.597 189.453 256.92 188.555C256.243 187.65 255.296 187.197 254.079 187.197C252.894 187.197 251.959 187.65 251.276 188.555C250.599 189.453 250.25 190.703 250.231 192.305V193.35C250.231 194.984 250.573 196.27 251.256 197.207C251.946 198.138 252.894 198.604 254.098 198.604C255.309 198.604 256.246 198.164 256.911 197.285C257.575 196.4 257.916 195.133 257.936 193.486V192.432ZM273.423 185.781V195.449C273.417 196.79 272.994 197.887 272.154 198.74C271.321 199.593 270.188 200.072 268.755 200.176L268.257 200.195C266.701 200.195 265.461 199.775 264.537 198.936C263.612 198.096 263.143 196.94 263.13 195.469V185.781H264.986V195.41C264.986 196.439 265.269 197.24 265.836 197.812C266.402 198.379 267.209 198.662 268.257 198.662C269.319 198.662 270.129 198.379 270.689 197.812C271.255 197.246 271.539 196.449 271.539 195.42V185.781H273.423ZM282.397 194.248H279.057V200H277.173V185.781H281.88C283.481 185.781 284.712 186.146 285.571 186.875C286.437 187.604 286.87 188.665 286.87 190.059C286.87 190.944 286.629 191.715 286.147 192.373C285.672 193.031 285.008 193.522 284.155 193.848L287.495 199.883V200H285.483L282.397 194.248ZM279.057 192.715H281.938C282.869 192.715 283.608 192.474 284.155 191.992C284.708 191.51 284.985 190.866 284.985 190.059C284.985 189.18 284.721 188.506 284.194 188.037C283.673 187.568 282.918 187.331 281.929 187.324H279.057V192.715ZM299.134 195.518L299.407 197.393L299.808 195.703L302.62 185.781H304.202L306.946 195.703L307.337 197.422L307.64 195.508L309.847 185.781H311.732L308.284 200H306.575L303.646 189.639L303.421 188.555L303.196 189.639L300.159 200H298.45L295.013 185.781H296.888L299.134 195.518ZM322.659 193.428H316.496V198.467H323.655V200H314.621V185.781H323.557V187.324H316.496V191.895H322.659V193.428ZM334.64 196.289H328.683L327.345 200H325.412L330.841 185.781H332.482L337.921 200H335.998L334.64 196.289ZM329.25 194.746H334.084L331.662 188.096L329.25 194.746ZM342.52 198.467H349.259V200H340.636V185.781H342.52V198.467ZM359.326 187.324H354.756V200H352.891V187.324H348.33V185.781H359.326V187.324ZM373.163 200H371.279V193.428H364.111V200H362.236V185.781H364.111V191.895H371.279V185.781H373.163V200Z" fill="black"/>
<line x1="104" y1="171.5" x2="378" y2="171.5" stroke="url(#paint5_linear)"/>
<line x1="105" y1="212.5" x2="378" y2="212.5" stroke="url(#paint6_linear)"/>
<defs>
<filter id="filter0_d" x="53.3997" y="50.1216" width="241.128" height="241.128" filterUnits="userSpaceOnUse" color-interpolation-filters="sRGB">
<feFlood flood-opacity="0" result="BackgroundImageFix"/>
<feColorMatrix in="SourceAlpha" type="matrix" values="0 0 0 0 0 0 0 0 0 0 0 0 0 0 0 0 0 0 127 0" result="hardAlpha"/>
<feOffset/>
<feGaussianBlur stdDeviation="12.5"/>
<feColorMatrix type="matrix" values="0 0 0 0 1 0 0 0 0 1 0 0 0 0 1 0 0 0 0.15 0"/>
<feBlend mode="normal" in2="BackgroundImageFix" result="effect1_dropShadow"/>
<feBlend mode="normal" in="SourceGraphic" in2="effect1_dropShadow" result="shape"/>
</filter>
<filter id="filter1_d" x="94.687" y="90.9448" width="159.017" height="158.553" filterUnits="userSpaceOnUse" color-interpolation-filters="sRGB">
<feFlood flood-opacity="0" result="BackgroundImageFix"/>
<feColorMatrix in="SourceAlpha" type="matrix" values="0 0 0 0 0 0 0 0 0 0 0 0 0 0 0 0 0 0 127 0" result="hardAlpha"/>
<feOffset/>
<feGaussianBlur stdDeviation="12.5"/>
<feColorMatrix type="matrix" values="0 0 0 0 1 0 0 0 0 1 0 0 0 0 1 0 0 0 0.15 0"/>
<feBlend mode="normal" in2="BackgroundImageFix" result="effect1_dropShadow"/>
<feBlend mode="normal" in="SourceGraphic" in2="effect1_dropShadow" result="shape"/>
</filter>
<linearGradient id="paint0_linear" x1="13.7907" y1="151.198" x2="93.7617" y2="151.198" gradientUnits="userSpaceOnUse">
<stop stop-color="#216ACF"/>
<stop offset="0.1191" stop-color="#1F5CD1"/>
<stop offset="0.7246" stop-color="#2AC1C2"/>
<stop offset="1" stop-color="#2BD0BF"/>
</linearGradient>
<linearGradient id="paint1_linear" x1="52.7747" y1="166.484" x2="9.0157" y2="221.298" gradientUnits="userSpaceOnUse">
<stop stop-color="#1F5CD1"/>
<stop offset="0.6865" stop-color="#2BCCC0"/>
<stop offset="1" stop-color="#2AC7C1"/>
</linearGradient>
<linearGradient id="paint2_linear" x1="41.4775" y1="186.713" x2="93.7801" y2="186.713" gradientUnits="userSpaceOnUse">
<stop stop-color="#1F5CD1"/>
<stop offset="0.1191" stop-color="#1D5CD0"/>
<stop offset="0.7246" stop-color="#29B8C3"/>
<stop offset="1" stop-color="#2CD1C0"/>
</linearGradient>
<linearGradient id="paint3_linear" x1="-0.0105369" y1="155.665" x2="51.2048" y2="155.665" gradientUnits="userSpaceOnUse">
<stop stop-color="#216ACF"/>
<stop offset="0.1191" stop-color="#1F5CD1"/>
<stop offset="0.7246" stop-color="#2AC1C2"/>
<stop offset="1" stop-color="#2BD0BF"/>
</linearGradient>
<linearGradient id="paint4_linear" x1="110" y1="153" x2="378" y2="153" gradientUnits="userSpaceOnUse">
<stop stop-color="#2BD0BF"/>
<stop offset="0.810417" stop-color="#1F5CD1"/>
</linearGradient>
<linearGradient id="paint5_linear" x1="104" y1="172" x2="378" y2="172" gradientUnits="userSpaceOnUse">
<stop stop-color="#88D8D2"/>
<stop offset="1" stop-color="#1F5CD1"/>
</linearGradient>
<linearGradient id="paint6_linear" x1="105" y1="213" x2="378" y2="213" gradientUnits="userSpaceOnUse">
<stop stop-color="#88D8D2"/>
<stop offset="1" stop-color="#1F5CD1"/>
</linearGradient>
</defs>
</svg>
